<?xml version="1.0" encoding="UTF-8" standalone="no"?>
<!-- Svg Vector Icons : http://www.onlinewebfonts.com/icon -->

<svg
   xmlns:dc="http://purl.org/dc/elements/1.1/"
   xmlns:cc="http://creativecommons.org/ns#"
   xmlns:rdf="http://www.w3.org/1999/02/22-rdf-syntax-ns#"
   xmlns:svg="http://www.w3.org/2000/svg"
   xmlns="http://www.w3.org/2000/svg"
   xmlns:sodipodi="http://sodipodi.sourceforge.net/DTD/sodipodi-0.dtd"
   xmlns:inkscape="http://www.inkscape.org/namespaces/inkscape"
   version="1.1"
   x="0px"
   y="0px"
   viewBox="0 0 1000 1000"
   enable-background="new 0 0 1000 1000"
   xml:space="preserve"
   id="svg18"
   sodipodi:docname="09ebe7876d2c2b05394f8fcc811f309b.svg"
   inkscape:version="0.92.2 (5c3e80d, 2017-08-06)"><defs
     id="defs22" /><sodipodi:namedview
     pagecolor="#ffffff"
     bordercolor="#666666"
     borderopacity="1"
     objecttolerance="10"
     gridtolerance="10"
     guidetolerance="10"
     inkscape:pageopacity="0"
     inkscape:pageshadow="2"
     inkscape:window-width="640"
     inkscape:window-height="480"
     id="namedview20"
     showgrid="false"
     inkscape:zoom="0.236"
     inkscape:cx="500"
     inkscape:cy="500"
     inkscape:window-x="0"
     inkscape:window-y="0"
     inkscape:window-maximized="0"
     inkscape:current-layer="svg18" /><metadata
     id="metadata2"> Svg Vector Icons : http://www.onlinewebfonts.com/icon <rdf:RDF><cc:Work
     rdf:about=""><dc:format>image/svg+xml</dc:format><dc:type
       rdf:resource="http://purl.org/dc/dcmitype/StillImage" /></cc:Work></rdf:RDF></metadata><g
     id="g16"
     style="fill:#ffffff"><path
       d="M10,82.2v696.9h980V82.2H10z M920.6,709.7H79.4v-558h841.1V709.7z"
       id="path4"
       style="fill:#ffffff" /><path
       d="M308.7,848.3h382.7v69.4H308.7V848.3z"
       id="path6"
       style="fill:#ffffff" /><path
       d="M158.3,244.4l120.4,120.4l16.4-16.4L174.6,228h112.2v-23.1H135.1v151.7h23.1V244.4z"
       id="path8"
       style="fill:#ffffff" /><path
       d="M725.3,364.7l120.4-120.4v112.2h23.2V204.9H717.1V228h112.2L708.9,348.4L725.3,364.7z"
       id="path10"
       style="fill:#ffffff" /><path
       d="M717.1,629.7v23.1h151.7V501.1h-23.2v112.2L725.3,492.9l-16.4,16.4l120.4,120.4H717.1z"
       id="path12"
       style="fill:#ffffff" /><path
       d="M286.8,629.7H174.6L295,509.3l-16.4-16.4L158.3,613.3V501.1h-23.1v151.7h151.7V629.7z"
       id="path14"
       style="fill:#ffffff" /></g></svg>