<?xml version="1.0" encoding="UTF-8" standalone="no"?>
<!-- Svg Vector Icons : http://www.onlinewebfonts.com/icon -->

<svg
   xmlns:dc="http://purl.org/dc/elements/1.1/"
   xmlns:cc="http://creativecommons.org/ns#"
   xmlns:rdf="http://www.w3.org/1999/02/22-rdf-syntax-ns#"
   xmlns:svg="http://www.w3.org/2000/svg"
   xmlns="http://www.w3.org/2000/svg"
   xmlns:sodipodi="http://sodipodi.sourceforge.net/DTD/sodipodi-0.dtd"
   xmlns:inkscape="http://www.inkscape.org/namespaces/inkscape"
   version="1.1"
   x="0px"
   y="0px"
   viewBox="0 0 1000 1000"
   enable-background="new 0 0 1000 1000"
   xml:space="preserve"
   id="svg8"
   sodipodi:docname="30d48090373dda4c05e2a1390c0b81303.svg"
   inkscape:version="0.92.2 (5c3e80d, 2017-08-06)"><defs
     id="defs12" /><sodipodi:namedview
     pagecolor="#ffffff"
     bordercolor="#666666"
     borderopacity="1"
     objecttolerance="10"
     gridtolerance="10"
     guidetolerance="10"
     inkscape:pageopacity="0"
     inkscape:pageshadow="2"
     inkscape:window-width="640"
     inkscape:window-height="480"
     id="namedview10"
     showgrid="false"
     inkscape:zoom="0.236"
     inkscape:cx="500"
     inkscape:cy="500"
     inkscape:window-x="0"
     inkscape:window-y="0"
     inkscape:window-maximized="0"
     inkscape:current-layer="svg8" /><metadata
     id="metadata2"> Svg Vector Icons : http://www.onlinewebfonts.com/icon <rdf:RDF><cc:Work
     rdf:about=""><dc:format>image/svg+xml</dc:format><dc:type
       rdf:resource="http://purl.org/dc/dcmitype/StillImage" /><dc:title></dc:title></cc:Work></rdf:RDF></metadata><g
     id="g6"
     style="fill:#ffffff"
     transform="rotate(180,500,500)"><path
       d="M 939.7,443.4 530.2,33.9 C 514.3,18 495.2,10 473,10 c -21.8,0 -40.7,8 -56.6,23.9 l -47.2,47.2 c -15.9,15.1 -23.9,34 -23.9,56.6 0,22.6 8,41.5 23.9,56.6 L 553.5,379.2 H 110.6 c -21.8,0 -39.5,7.9 -53.1,23.6 C 43.9,418.5 37,437.5 37,459.7 v 80.5 c 0,22.2 6.8,41.2 20.4,56.9 13.6,15.7 31.3,23.6 53.1,23.6 H 553.3 L 369.2,805.1 c -15.9,15.9 -23.9,35 -23.9,57.2 0,22.2 8,41.3 23.9,57.2 l 47.2,47.2 c 16.4,15.5 35.2,23.3 56.6,23.3 21.8,0 40.9,-7.8 57.2,-23.3 L 939.7,557.2 C 955.2,541.7 963,522.6 963,500 c 0,-23.1 -7.8,-41.9 -23.3,-56.6 z"
       id="path4"
       style="fill:#ffffff"
       inkscape:connector-curvature="0" /></g></svg>