<?xml version="1.0" encoding="UTF-8" standalone="no"?>
<!-- Svg Vector Icons : http://www.onlinewebfonts.com/icon -->

<svg
   xmlns:dc="http://purl.org/dc/elements/1.1/"
   xmlns:cc="http://creativecommons.org/ns#"
   xmlns:rdf="http://www.w3.org/1999/02/22-rdf-syntax-ns#"
   xmlns:svg="http://www.w3.org/2000/svg"
   xmlns="http://www.w3.org/2000/svg"
   xmlns:sodipodi="http://sodipodi.sourceforge.net/DTD/sodipodi-0.dtd"
   xmlns:inkscape="http://www.inkscape.org/namespaces/inkscape"
   version="1.1"
   x="0px"
   y="0px"
   viewBox="0 0 1000 1000"
   enable-background="new 0 0 1000 1000"
   xml:space="preserve"
   id="svg8"
   sodipodi:docname="30d48090373dda4c05e2a1390c0b81302.svg"
   inkscape:version="0.92.2 (5c3e80d, 2017-08-06)"><defs
     id="defs12" /><sodipodi:namedview
     pagecolor="#ffffff"
     bordercolor="#666666"
     borderopacity="1"
     objecttolerance="10"
     gridtolerance="10"
     guidetolerance="10"
     inkscape:pageopacity="0"
     inkscape:pageshadow="2"
     inkscape:window-width="640"
     inkscape:window-height="480"
     id="namedview10"
     showgrid="false"
     inkscape:zoom="0.236"
     inkscape:cx="500"
     inkscape:cy="500"
     inkscape:window-x="0"
     inkscape:window-y="0"
     inkscape:window-maximized="0"
     inkscape:current-layer="svg8" /><metadata
     id="metadata2"> Svg Vector Icons : http://www.onlinewebfonts.com/icon <rdf:RDF><cc:Work
     rdf:about=""><dc:format>image/svg+xml</dc:format><dc:type
       rdf:resource="http://purl.org/dc/dcmitype/StillImage" /><dc:title></dc:title></cc:Work></rdf:RDF></metadata><g
     id="g6"
     style="fill:#ffffff"><path
       d="M939.7,443.4L530.2,33.9C514.3,18,495.2,10,473,10c-21.8,0-40.7,8-56.6,23.9l-47.2,47.2c-15.9,15.1-23.9,34-23.9,56.6c0,22.6,8,41.5,23.9,56.6l184.3,184.9H110.6c-21.8,0-39.5,7.9-53.1,23.6C43.9,418.5,37,437.5,37,459.7v80.5c0,22.2,6.8,41.2,20.4,56.9c13.6,15.7,31.3,23.6,53.1,23.6h442.8L369.2,805.1c-15.9,15.9-23.9,35-23.9,57.2c0,22.2,8,41.3,23.9,57.2l47.2,47.2c16.4,15.5,35.2,23.3,56.6,23.3c21.8,0,40.9-7.8,57.2-23.3l409.5-409.5c15.5-15.5,23.3-34.6,23.3-57.2C963,476.9,955.2,458.1,939.7,443.4z"
       id="path4"
       style="fill:#ffffff" /></g></svg>