<?xml version="1.0" encoding="UTF-8" standalone="no"?>
<!-- Svg Vector Icons : http://www.onlinewebfonts.com/icon -->

<svg
   xmlns:dc="http://purl.org/dc/elements/1.1/"
   xmlns:cc="http://creativecommons.org/ns#"
   xmlns:rdf="http://www.w3.org/1999/02/22-rdf-syntax-ns#"
   xmlns:svg="http://www.w3.org/2000/svg"
   xmlns="http://www.w3.org/2000/svg"
   xmlns:sodipodi="http://sodipodi.sourceforge.net/DTD/sodipodi-0.dtd"
   xmlns:inkscape="http://www.inkscape.org/namespaces/inkscape"
   version="1.1"
   x="0px"
   y="0px"
   viewBox="0 0 1000 1000"
   enable-background="new 0 0 1000 1000"
   xml:space="preserve"
   id="svg16"
   sodipodi:docname="e4698afd04f9c7bc60caaa22386a4f79.svg"
   inkscape:version="0.92.2 (5c3e80d, 2017-08-06)"><defs
     id="defs20" /><sodipodi:namedview
     pagecolor="#ffffff"
     bordercolor="#666666"
     borderopacity="1"
     objecttolerance="10"
     gridtolerance="10"
     guidetolerance="10"
     inkscape:pageopacity="0"
     inkscape:pageshadow="2"
     inkscape:window-width="640"
     inkscape:window-height="480"
     id="namedview18"
     showgrid="false"
     inkscape:zoom="0.236"
     inkscape:cx="500"
     inkscape:cy="500"
     inkscape:window-x="0"
     inkscape:window-y="0"
     inkscape:window-maximized="0"
     inkscape:current-layer="svg16" /><metadata
     id="metadata2"> Svg Vector Icons : http://www.onlinewebfonts.com/icon <rdf:RDF><cc:Work
     rdf:about=""><dc:format>image/svg+xml</dc:format><dc:type
       rdf:resource="http://purl.org/dc/dcmitype/StillImage" /></cc:Work></rdf:RDF></metadata><g
     id="g14"
     style="fill:#ffffff"><g
       transform="translate(0.000000,511.000000) scale(0.100000,-0.100000)"
       id="g12"
       style="fill:#ffffff"><path
         d="M8545.7,5008.6c-19.7-7.4-465.4-448.1-989.8-977.5l-952.9-965.2l-401.3,401.3c-421,416.1-472.8,450.6-546.6,344.7c-34.5-49.2-39.4-233.9-39.4-1509.4c0-1275.5,4.9-1460.1,39.4-1509.4l36.9-54.2h1511.9c1470,0,1514.3,2.5,1538.9,46.8c12.3,27.1,24.6,61.6,24.6,78.8c0,17.2-177.3,209.3-394,428.4c-216.7,216.7-394,406.3-394,418.6c0,12.3,433.4,455.5,962.8,987.4c908.6,911,962.8,970.1,948,1036.6c-29.5,115.7-1231.2,1305-1300.1,1285.3C8585.1,5020.9,8565.4,5013.5,8545.7,5008.6z"
         id="path4"
         style="fill:#ffffff" /><path
         d="M710.6,4388.1C149.2,3826.7,100,3772.5,100,3693.7c0-81.3,59.1-145.3,965.2-1039.1l967.7-952.9L1634,1300.4c-418.6-421-453.1-472.8-347.2-546.6c49.2-34.5,233.9-39.4,1509.4-39.4s1460.1,4.9,1509.4,39.4l54.2,36.9v1511.8c0,1470-2.5,1514.3-46.8,1538.9c-27.1,12.3-61.6,24.6-78.8,24.6c-17.2,0-211.8-179.7-433.4-398.9l-401.4-398.9l-204.4,194.5c-110.8,108.3-551.6,544.2-977.5,965.2c-593.4,588.5-790.4,770.7-837.2,770.7C1333.6,4998.8,1173.6,4853.5,710.6,4388.1z"
         id="path6"
         style="fill:#ffffff" /><path
         d="M1281.9-563.6c-12.3-27.1-24.6-64-24.6-81.3c0-17.2,179.7-211.7,398.9-430.9l401.4-401.4l-233.9-238.8c-128-132.9-571.3-581.1-982.5-997.2C139.4-3422.3,95.1-3471.5,109.8-3538c12.3-46.8,214.2-265.9,613.1-664.8c549.1-549.1,605.7-598.3,682.1-598.3c81.3,0,147.7,61.6,1051.4,977.5l965.2,980L3823-3245c396.4-394,462.9-438.3,531.8-369.3c41.9,41.9,41.9,3026.2,0,3068c-22.2,22.2-396.4,29.6-1538.9,29.6C1350.8-516.8,1306.5-519.2,1281.9-563.6z"
         id="path8"
         style="fill:#ffffff" /><path
         d="M5642.6-551.2c-19.7-22.2-24.6-448.1-22.1-1543.9l7.4-1511.9l68.9-22.2c66.5-24.6,83.7-7.4,472.8,379.2l406.3,406.3l226.5-221.6c125.6-123.1,573.7-563.9,997.2-982.5c719-714.1,770.7-758.4,837.2-743.6c46.8,12.3,265.9,214.2,667.3,613.1c546.6,549.1,595.9,605.7,595.9,682.1c2.4,81.3-59.1,147.7-977.5,1051.4l-980,965.2l401.3,401.3c394,396.4,438.3,462.9,369.4,531.8C8666.3-499.5,5682-504.5,5642.6-551.2z"
         id="path10"
         style="fill:#ffffff" /></g></g></svg>